name rise35.5848peak51.9257fall54.8793.mot
datacolumns 19
datarows 21
range 16.61494400000000 16.64826200000000
endheader
time	ground_force1_vx	ground_force1_vy	ground_force1_vz	ground_force1_px	ground_force1_py	ground_force1_pz	ground_force2_vx	ground_force2_vy	ground_force2_vz	ground_force2_px	ground_force2_py	ground_force2_pz	ground_torque1_x	ground_torque1_y	ground_torque1_z	ground_torque2_x	ground_torque2_y	ground_torque2_z	
16.61494400000000	57.46586400000000	796.20812200000000	59.39045000000000	0.28635100000000	0.00000000000000	0.12944100000000	0.00000000000000	0.00000000000000	0.00000000000000	0.00000000000000	0.00000000000000	0.00000000000000	0.00000000000000	19.07931700000000	0.00000000000000	0.00000000000000	0.00000000000000	0.00000000000000	
16.61659900000000	56.89756200000000	798.58839999999998	59.54572200000000	0.28555900000000	0.00000000000000	0.12946000000000	0.00000000000000	0.00000000000000	0.00000000000000	0.00000000000000	0.00000000000000	0.00000000000000	0.00000000000000	19.19816000000000	0.00000000000000	0.00000000000000	0.00000000000000	0.00000000000000	
16.61826900000000	56.32043500000000	800.76671899999997	59.68840200000000	0.28476400000000	0.00000000000000	0.12948100000000	0.00000000000000	0.00000000000000	0.00000000000000	0.00000000000000	0.00000000000000	0.00000000000000	0.00000000000000	19.31174000000000	0.00000000000000	0.00000000000000	0.00000000000000	0.00000000000000	
16.61994100000000	55.73537800000000	802.74360100000001	59.81886000000000	0.28396400000000	0.00000000000000	0.12950200000000	0.00000000000000	0.00000000000000	0.00000000000000	0.00000000000000	0.00000000000000	0.00000000000000	0.00000000000000	19.42008500000000	0.00000000000000	0.00000000000000	0.00000000000000	0.00000000000000	
16.62159900000000	55.14324400000000	804.51990499999999	59.93744000000000	0.28315900000000	0.00000000000000	0.12952400000000	0.00000000000000	0.00000000000000	0.00000000000000	0.00000000000000	0.00000000000000	0.00000000000000	0.00000000000000	19.52321500000000	0.00000000000000	0.00000000000000	0.00000000000000	0.00000000000000	
16.62326900000000	54.54484800000000	806.09683500000006	60.04446300000000	0.28234800000000	0.00000000000000	0.12954800000000	0.00000000000000	0.00000000000000	0.00000000000000	0.00000000000000	0.00000000000000	0.00000000000000	0.00000000000000	19.62114100000000	0.00000000000000	0.00000000000000	0.00000000000000	0.00000000000000	
16.62494900000000	53.94096300000000	807.47593600000005	60.14022400000000	0.28153000000000	0.00000000000000	0.12957200000000	0.00000000000000	0.00000000000000	0.00000000000000	0.00000000000000	0.00000000000000	0.00000000000000	0.00000000000000	19.71386600000000	0.00000000000000	0.00000000000000	0.00000000000000	0.00000000000000	
16.62659800000000	53.33232300000000	808.65909099999999	60.22499700000000	0.28070400000000	0.00000000000000	0.12959800000000	0.00000000000000	0.00000000000000	0.00000000000000	0.00000000000000	0.00000000000000	0.00000000000000	0.00000000000000	19.80139000000000	0.00000000000000	0.00000000000000	0.00000000000000	0.00000000000000	
16.62826800000000	52.71962400000000	809.64852199999996	60.29903300000000	0.27987000000000	0.00000000000000	0.12962600000000	0.00000000000000	0.00000000000000	0.00000000000000	0.00000000000000	0.00000000000000	0.00000000000000	0.00000000000000	19.88370500000000	0.00000000000000	0.00000000000000	0.00000000000000	0.00000000000000	
16.62995400000000	52.10352600000000	810.44678299999998	60.36256600000000	0.27902600000000	0.00000000000000	0.12965500000000	0.00000000000000	0.00000000000000	0.00000000000000	0.00000000000000	0.00000000000000	0.00000000000000	0.00000000000000	19.96080200000000	0.00000000000000	0.00000000000000	0.00000000000000	0.00000000000000	
16.63160600000000	51.48465100000000	811.05675599999995	60.41580800000000	0.27817200000000	0.00000000000000	0.12968500000000	0.00000000000000	0.00000000000000	0.00000000000000	0.00000000000000	0.00000000000000	0.00000000000000	0.00000000000000	20.03266800000000	0.00000000000000	0.00000000000000	0.00000000000000	0.00000000000000	
16.63326800000000	50.86358800000000	811.48164399999996	60.45896000000000	0.27730600000000	0.00000000000000	0.12971600000000	0.00000000000000	0.00000000000000	0.00000000000000	0.00000000000000	0.00000000000000	0.00000000000000	0.00000000000000	20.09928900000000	0.00000000000000	0.00000000000000	0.00000000000000	0.00000000000000	
16.63494300000000	50.24089300000000	811.72496400000000	60.49220400000000	0.27642900000000	0.00000000000000	0.12974900000000	0.00000000000000	0.00000000000000	0.00000000000000	0.00000000000000	0.00000000000000	0.00000000000000	0.00000000000000	20.16065200000000	0.00000000000000	0.00000000000000	0.00000000000000	0.00000000000000	
16.63659700000000	49.61708900000000	811.79053899999997	60.51571500000000	0.27554000000000	0.00000000000000	0.12978400000000	0.00000000000000	0.00000000000000	0.00000000000000	0.00000000000000	0.00000000000000	0.00000000000000	0.00000000000000	20.21674300000000	0.00000000000000	0.00000000000000	0.00000000000000	0.00000000000000	
16.63826600000000	48.99267100000000	811.68248700000004	60.52965300000000	0.27463900000000	0.00000000000000	0.12981900000000	0.00000000000000	0.00000000000000	0.00000000000000	0.00000000000000	0.00000000000000	0.00000000000000	0.00000000000000	20.26755300000000	0.00000000000000	0.00000000000000	0.00000000000000	0.00000000000000	
16.63993200000000	48.36810500000000	811.40520900000001	60.53417400000000	0.27372400000000	0.00000000000000	0.12985700000000	0.00000000000000	0.00000000000000	0.00000000000000	0.00000000000000	0.00000000000000	0.00000000000000	0.00000000000000	20.31307500000000	0.00000000000000	0.00000000000000	0.00000000000000	0.00000000000000	
16.64160400000000	47.74383100000000	810.96338200000002	60.52942700000000	0.27279500000000	0.00000000000000	0.12989500000000	0.00000000000000	0.00000000000000	0.00000000000000	0.00000000000000	0.00000000000000	0.00000000000000	0.00000000000000	20.35330600000000	0.00000000000000	0.00000000000000	0.00000000000000	0.00000000000000	
16.64326500000000	47.12026500000000	810.36194200000000	60.51555600000000	0.27185300000000	0.00000000000000	0.12993500000000	0.00000000000000	0.00000000000000	0.00000000000000	0.00000000000000	0.00000000000000	0.00000000000000	0.00000000000000	20.38825100000000	0.00000000000000	0.00000000000000	0.00000000000000	0.00000000000000	
16.64494100000000	46.49779800000000	809.60607200000004	60.49270500000000	0.27089700000000	0.00000000000000	0.12997600000000	0.00000000000000	0.00000000000000	0.00000000000000	0.00000000000000	0.00000000000000	0.00000000000000	0.00000000000000	20.41792000000000	0.00000000000000	0.00000000000000	0.00000000000000	0.00000000000000	
16.64659900000000	45.87680400000000	808.70118800000000	60.46101800000000	0.26992600000000	0.00000000000000	0.13001900000000	0.00000000000000	0.00000000000000	0.00000000000000	0.00000000000000	0.00000000000000	0.00000000000000	0.00000000000000	20.44233100000000	0.00000000000000	0.00000000000000	0.00000000000000	0.00000000000000	
16.64826200000000	45.25763500000000	807.65292399999998	60.42064000000000	0.26894100000000	0.00000000000000	0.13006300000000	0.00000000000000	0.00000000000000	0.00000000000000	0.00000000000000	0.00000000000000	0.00000000000000	0.00000000000000	20.46151200000000	0.00000000000000	0.00000000000000	0.00000000000000	0.00000000000000	
